<svg width="15" height="15" viewBox="0 0 15 15" fill="none" xmlns="http://www.w3.org/2000/svg">
<path d="M3.90842 7.87657C3.90842 8.20792 3.63977 8.47657 3.30842 8.47657C2.97707 8.47657 2.70842 8.20792 2.70842 7.87657C2.70842 7.54523 2.97707 7.27657 3.30842 7.27657C3.63977 7.27657 3.90842 7.54523 3.90842 7.87657ZM6.58572 7.87657C6.58572 8.20792 6.31706 8.47657 5.98571 8.47657C5.65437 8.47657 5.38572 8.20792 5.38572 7.87657C5.38572 7.54523 5.65437 7.27657 5.98571 7.27657C6.31706 7.27657 6.58572 7.54523 6.58572 7.87657ZM9.26308 7.87657C9.26308 8.20792 8.99443 8.47657 8.66308 8.47657C8.33174 8.47657 8.06308 8.20792 8.06308 7.87657C8.06308 7.54523 8.33174 7.27657 8.66308 7.27657C8.99443 7.27657 9.26308 7.54523 9.26308 7.87657ZM11.9404 7.87657C11.9404 8.20792 11.6717 8.47657 11.3404 8.47657C11.009 8.47657 10.7404 8.20792 10.7404 7.87657C10.7404 7.54523 11.009 7.27657 11.3404 7.27657C11.6717 7.27657 11.9404 7.54523 11.9404 7.87657ZM3.90842 9.95136C3.90842 10.2827 3.63977 10.5514 3.30842 10.5514C2.97707 10.5514 2.70842 10.2827 2.70842 9.95136C2.70842 9.62002 2.97707 9.35137 3.30842 9.35137C3.63977 9.35137 3.90842 9.62002 3.90842 9.95136ZM6.58572 9.95136C6.58572 10.2827 6.31706 10.5514 5.98571 10.5514C5.65437 10.5514 5.38572 10.2827 5.38572 9.95136C5.38572 9.62002 5.65437 9.35137 5.98571 9.35137C6.31706 9.35137 6.58572 9.62002 6.58572 9.95136ZM9.26308 9.95136C9.26308 10.2827 8.99443 10.5514 8.66308 10.5514C8.33174 10.5514 8.06308 10.2827 8.06308 9.95136C8.06308 9.62002 8.33174 9.35137 8.66308 9.35137C8.99443 9.35137 9.26308 9.62002 9.26308 9.95136ZM11.9404 9.95136C11.9404 10.2827 11.6717 10.5514 11.3404 10.5514C11.009 10.5514 10.7404 10.2827 10.7404 9.95136C10.7404 9.62002 11.009 9.35137 11.3404 9.35137C11.6717 9.35137 11.9404 9.62002 11.9404 9.95136ZM3.90842 12.0262C3.90842 12.3575 3.63977 12.6262 3.30842 12.6262C2.97707 12.6262 2.70842 12.3575 2.70842 12.0262C2.70842 11.6948 2.97707 11.4262 3.30842 11.4262C3.63977 11.4262 3.90842 11.6948 3.90842 12.0262ZM6.58572 12.0262C6.58572 12.3575 6.31706 12.6262 5.98571 12.6262C5.65437 12.6262 5.38572 12.3575 5.38572 12.0262C5.38572 11.6948 5.65437 11.4262 5.98571 11.4262C6.31706 11.4262 6.58572 11.6948 6.58572 12.0262ZM9.26308 12.0262C9.26308 12.3575 8.99443 12.6262 8.66308 12.6262C8.33174 12.6262 8.06308 12.3575 8.06308 12.0262C8.06308 11.6948 8.33174 11.4262 8.66308 11.4262C8.99443 11.4262 9.26308 11.6948 9.26308 12.0262ZM11.9404 12.0262C11.9404 12.3575 11.6717 12.6262 11.3404 12.6262C11.009 12.6262 10.7404 12.3575 10.7404 12.0262C10.7404 11.6948 11.009 11.4262 11.3404 11.4262C11.6717 11.4262 11.9404 11.6948 11.9404 12.0262ZM3.34248 1.19996V3.44996C3.34248 3.61565 3.47679 3.74996 3.64248 3.74996C3.80817 3.74996 3.94248 3.61565 3.94248 3.44996V1.19996C3.94248 1.03427 3.80817 0.899963 3.64248 0.899963C3.47679 0.899963 3.34248 1.03427 3.34248 1.19996ZM11.0782 1.19996V3.44996C11.0782 3.61565 11.2125 3.74996 11.3782 3.74996C11.5439 3.74996 11.6782 3.61565 11.6782 3.44996V1.19996C11.6782 1.03427 11.5439 0.899963 11.3782 0.899963C11.2125 0.899963 11.0782 1.03427 11.0782 1.19996Z" fill="white"/>
<path d="M13.05 2.0144C13.547 2.0144 13.95 2.41737 13.95 2.9144V13.2177C13.95 13.7148 13.547 14.1177 13.05 14.1177H1.94996C1.45292 14.1177 1.04996 13.7148 1.04996 13.2177V2.9144C1.04996 2.41737 1.45292 2.0144 1.94996 2.0144H13.05ZM1.94996 2.6144C1.7843 2.6144 1.64996 2.74875 1.64996 2.9144V13.2177C1.64996 13.3834 1.7843 13.5177 1.94996 13.5177H13.05C13.2156 13.5177 13.35 13.3834 13.35 13.2177V2.9144C13.35 2.74875 13.2156 2.6144 13.05 2.6144H1.94996Z" fill="white"/>
<path d="M8.42329 4.95538C8.42329 4.45836 8.02031 4.05538 7.52329 4.05538C7.02626 4.05538 6.62328 4.45836 6.62328 4.95538C6.62328 5.4524 7.02626 5.85538 7.52329 5.85538C8.02031 5.85538 8.42329 5.4524 8.42329 4.95538ZM9.02328 4.95538C9.02328 5.78377 8.35167 6.45538 7.52329 6.45538C6.6949 6.45538 6.02328 5.78377 6.02328 4.95538C6.02328 4.127 6.6949 3.45538 7.52329 3.45538C8.35167 3.45538 9.02328 4.127 9.02328 4.95538Z" fill="white"/>
</svg>
