<svg width="59" height="59" viewBox="0 0 59 59" fill="none" xmlns="http://www.w3.org/2000/svg">
<path d="M51.2856 44.3415V25.5664L48.2607 27.0788V44.3396L46.2437 49.526H53.3018L51.2856 44.3415Z" fill="black"/>
<path d="M26.3961 35.3044L13.978 29.0956V35.2924C13.978 39.4689 20.7496 42.8546 29.1025 42.8546C37.4557 42.8546 44.227 39.4689 44.227 35.2924V29.0955L31.8079 35.3048C29.6822 36.1468 28.522 36.1466 26.3961 35.3044Z" fill="black"/>
<path d="M30.4554 32.5995L51.949 21.8527C52.6932 21.4806 52.6932 20.872 51.949 20.4998L30.4554 9.75309C29.7115 9.38101 28.494 9.38101 27.7498 9.75309L6.25621 20.4998C5.51231 20.8719 5.51231 21.4806 6.25621 21.8527L27.7498 32.5995C28.494 32.9715 29.7115 32.9715 30.4554 32.5995Z" fill="black"/>
</svg>
