<svg width="23" height="23" viewBox="0 0 23 23" fill="none" xmlns="http://www.w3.org/2000/svg">
<rect width="23" height="23" rx="11.5" fill="white"/>
<path d="M13.1 16C13.1 15.3925 12.6075 14.9 12 14.9C11.3925 14.9 10.9 15.3925 10.9 16H13.1ZM11.2222 17.7778C11.6518 18.2074 12.3482 18.2074 12.7778 17.7778L19.7782 10.7775C20.2078 10.3479 20.2078 9.6514 19.7782 9.22183C19.3486 8.79225 18.6521 8.79225 18.2225 9.22183L12 15.4444L5.77746 9.22183C5.34788 8.79225 4.6514 8.79225 4.22183 9.22183C3.79225 9.6514 3.79225 10.3479 4.22183 10.7775L11.2222 17.7778ZM10.9 16V17H13.1V16H10.9Z" fill="black"/>
</svg>
