<svg width="36" height="36" viewBox="0 0 36 36" fill="none" xmlns="http://www.w3.org/2000/svg">
<g clip-path="url(#clip0_4_46)">
<path d="M28.224 19.207C23.9287 19.207 20.4459 22.6909 20.4459 26.9852C20.4459 31.2783 23.9287 34.7601 28.224 34.7601C32.5172 34.7601 36 31.2784 36 26.9852C36 22.6909 32.5172 19.207 28.224 19.207ZM28.7231 32.7335V32.062C28.7231 31.7842 28.4991 31.5598 28.224 31.5598C27.9462 31.5598 27.7228 31.7848 27.7228 32.062V32.7335C24.938 32.4941 22.7135 30.269 22.474 27.4847H23.1476C23.4227 27.4847 23.6477 27.2606 23.6477 26.9856C23.6477 26.7058 23.4227 26.4844 23.1476 26.4844H22.474C22.7134 23.6991 24.9385 21.4762 27.7228 21.2356V21.9082C27.7228 22.1849 27.9468 22.4094 28.224 22.4094C28.4991 22.4094 28.7231 22.1844 28.7231 21.9082V21.2356C31.5089 21.4762 33.7335 23.6991 33.9718 26.4844H33.2982C33.0216 26.4844 32.7981 26.7062 32.7981 26.9856C32.7981 27.2613 33.0221 27.4847 33.2982 27.4847H33.9718C33.734 30.2689 31.5089 32.4935 28.7231 32.7335Z" fill="black"/>
<path d="M31.1215 26.2333H29.3173C29.0768 25.8864 28.6773 25.6561 28.2239 25.6561C28.2171 25.6561 28.2096 25.6582 28.2016 25.6582L26.5576 23.3437C26.3182 23.0069 25.8489 22.9287 25.511 23.167C25.1742 23.4076 25.0933 23.8779 25.3343 24.2158L26.9795 26.5312C26.9289 26.6733 26.8965 26.8244 26.8965 26.9856C26.8965 27.7188 27.4898 28.312 28.2239 28.312C28.6773 28.312 29.0789 28.0838 29.3173 27.7358H31.1215C31.5355 27.7358 31.8723 27.4012 31.8723 26.9862C31.8723 26.5691 31.5355 26.2333 31.1215 26.2333Z" fill="black"/>
<path d="M7.485 11.5055C8.846 11.5055 9.94735 10.403 9.94735 9.04364V3.70175C9.94735 2.34181 8.846 1.23993 7.485 1.23993C6.12505 1.23993 5.02423 2.34181 5.02423 3.70175V9.04417C5.02423 10.403 6.125 11.5055 7.485 11.5055Z" fill="black"/>
<path d="M22.5634 11.5055C23.9245 11.5055 25.0258 10.403 25.0258 9.04364V3.70175C25.0258 2.34181 23.9244 1.23993 22.5634 1.23993C21.2045 1.23993 20.1027 2.34181 20.1027 3.70175V9.04417C20.1021 10.403 21.2046 11.5055 22.5634 11.5055Z" fill="black"/>
<path d="M10.821 18.3408C10.821 17.6379 10.2528 17.0686 9.54829 17.0686H7.18917C6.48635 17.0686 5.91547 17.6379 5.91547 18.3408V20.6989C5.91547 21.4028 6.48635 21.9737 7.18917 21.9737H9.54829C10.2522 21.9737 10.821 21.4028 10.821 20.6989V18.3408Z" fill="black"/>
<path d="M17.4781 18.3423C17.4781 17.6395 16.9082 17.0707 16.207 17.0707H13.8468C13.1439 17.0707 12.5751 17.6395 12.5751 18.3423V20.701C12.5751 21.4027 13.1439 21.9737 13.8468 21.9737H16.207C16.9088 21.9737 17.4781 21.4027 17.4781 20.701V18.3423Z" fill="black"/>
<path d="M20.5028 17.0686C19.7989 17.0686 19.2291 17.6379 19.2291 18.3408V20.6989C19.2291 21.3357 19.7037 21.838 20.3124 21.9332C21.2455 20.4796 22.5672 19.3027 24.132 18.5419V18.3408C24.132 17.6379 23.5632 17.0686 22.8593 17.0686H20.5028Z" fill="black"/>
<path d="M7.1897 23.4608C6.48688 23.4608 5.91594 24.0295 5.91594 24.7323V27.0915C5.91594 27.7943 6.48688 28.363 7.1897 28.363H9.54994C10.2528 28.363 10.821 27.7943 10.821 27.0915V24.7323C10.821 24.0295 10.2528 23.4608 9.54994 23.4608H7.1897Z" fill="black"/>
<path d="M16.2043 23.4618H13.8462C13.1434 23.4618 12.5746 24.0317 12.5746 24.7345V27.0915C12.5746 27.7944 13.1434 28.3631 13.8462 28.3631H16.2043C16.9061 28.3631 17.4759 27.7944 17.4759 27.0915V24.7345C17.4759 24.0316 16.9061 23.4618 16.2043 23.4618Z" fill="black"/>
<path d="M19.6435 30.7994H7.67494C5.61482 30.7994 3.93829 29.1229 3.93829 27.0649V14.5642H26.1123V17.8353C26.7918 17.6789 27.4957 17.5873 28.224 17.5873C28.8486 17.5873 29.4584 17.6518 30.0495 17.7693V6.01199H26.5028V9.04364C26.5028 11.2155 24.7369 12.9819 22.5634 12.9819C20.3911 12.9819 18.6252 11.2155 18.6252 9.04364V6.01199H11.4243V9.04364C11.4243 11.2155 9.6573 12.9819 7.48494 12.9819C5.31359 12.9819 3.54665 11.2155 3.54665 9.04364V6.01199H0V27.0644C0 31.3017 3.436 34.7393 7.67494 34.7393H22.3741C22.5486 34.7393 22.7209 34.725 22.8923 34.7138C21.4802 33.7379 20.3522 32.3838 19.6435 30.7994Z" fill="black"/>
</g>
<defs>
<clipPath id="clip0_4_46">
<rect width="36" height="36" fill="white"/>
</clipPath>
</defs>
</svg>
