<svg width="29" height="29" viewBox="0 0 29 29" fill="none" xmlns="http://www.w3.org/2000/svg">
<path fill-rule="evenodd" clip-rule="evenodd" d="M23.5519 1.77173C25.485 1.77173 27.0519 3.33874 27.0519 5.27173V23.9384C27.0519 25.8714 25.485 27.4384 23.5519 27.4384H4.88524C2.95225 27.4384 1.38524 25.8714 1.38524 23.9384V5.27173C1.38524 3.33874 2.95225 1.77173 4.88524 1.77173H23.5519ZM23.5519 4.10506C24.1963 4.10506 24.7186 4.6274 24.7186 5.27173V23.9384C24.7186 24.5827 24.1963 25.1051 23.5519 25.1051H17.7186V16.9383H20.1408C20.6429 16.9383 21.0887 16.617 21.2476 16.1405L21.7645 14.59C21.9533 14.0234 21.5316 13.4383 20.9344 13.4383H17.7186V11.105C17.7186 10.5216 18.3019 9.9383 18.8852 9.9383H21.2186C21.8629 9.9383 22.3852 9.41596 22.3852 8.77164V7.97131C22.3852 7.59446 22.1446 7.25658 21.7801 7.16041C20.2508 6.75684 18.8852 6.75684 18.8852 6.75684C15.9686 6.75684 14.2186 8.77164 14.2186 10.5216V13.4383H11.8852C11.2409 13.4383 10.7186 13.9606 10.7186 14.6049V15.7716C10.7186 16.416 11.2409 16.9383 11.8852 16.9383H14.2186V25.1051H4.88524C4.24091 25.1051 3.71857 24.5827 3.71857 23.9384V5.27173C3.71857 4.6274 4.24091 4.10506 4.88524 4.10506H23.5519Z" fill="white"/>
</svg>
