<svg width="17" height="17" viewBox="0 0 17 17" fill="none" xmlns="http://www.w3.org/2000/svg">
<g clip-path="url(#clip0_19_27)">
<path d="M6.57019 6.17249C7.29443 6.17249 7.97451 5.88054 8.4852 5.35044C8.92562 4.89321 9.43945 4.04792 9.38595 2.61753C9.32452 0.978936 8.04814 0.137484 6.80992 0.00771938C6.73431 -0.000221419 6.43914 -0.00239061 6.38015 0.00287743C5.12655 0.115094 3.81655 0.957012 3.75446 2.61757C3.70097 4.04792 4.21479 4.89321 4.65522 5.35044C5.16587 5.88054 5.84595 6.17249 6.57019 6.17249ZM7.92721 4.81298C7.56391 5.19011 7.082 5.39781 6.57019 5.39781C6.05837 5.39781 5.57646 5.19011 5.21316 4.81298C4.8463 4.4321 4.62194 3.90696 4.55059 3.27379C5.95139 3.19903 7.40211 2.86106 8.57797 2.33685C8.59594 2.43532 8.60772 2.53831 8.61175 2.64654C8.64607 3.56334 8.40935 4.31248 7.92721 4.81298ZM6.57019 0.766627C7.22885 0.793161 7.89824 1.06857 8.28373 1.62017C7.19763 2.10901 5.84835 2.42567 4.53955 2.49873C4.65762 1.35456 5.62512 0.804704 6.57019 0.766627ZM11.344 10.1307C9.4501 10.1307 7.90939 11.6715 7.90939 13.5654C7.90939 15.4593 9.4501 17 11.344 17C13.2379 17 14.7787 15.4593 14.7787 13.5654C14.7787 11.6715 13.2379 10.1307 11.344 10.1307ZM11.344 16.2253C9.87731 16.2253 8.6841 15.0321 8.6841 13.5654C8.6841 12.0987 9.87731 10.9054 11.344 10.9054C12.8107 10.9054 14.004 12.0987 14.004 13.5654C14.004 15.0321 12.8108 16.2253 11.344 16.2253ZM11.7313 13.5467L11.7314 14.9457C11.7314 15.1596 11.558 15.3331 11.3441 15.3331C11.1302 15.3331 10.9567 15.1597 10.9567 14.9458L10.9566 13.5468C10.9566 13.3328 11.13 13.1594 11.3439 13.1594C11.5579 13.1593 11.7313 13.3328 11.7313 13.5467ZM11.7314 12.1853C11.7314 12.3992 11.558 12.5725 11.3441 12.5725C11.1302 12.5725 10.9566 12.3992 10.9566 12.1852C10.9566 11.9713 11.13 11.798 11.3439 11.798H11.3441C11.558 11.798 11.7314 11.9713 11.7314 12.1853ZM6.6518 14.4708C6.6518 14.6847 6.47838 14.8581 6.26445 14.8581H2.60866C2.49354 14.8581 2.38442 14.8106 2.31086 14.7221C2.23726 14.6337 2.20682 14.5207 2.22781 14.4075L3.14162 9.47903C3.46197 7.74937 5.0961 6.97505 6.57352 6.97505C8.15284 6.97505 9.4556 7.78943 9.89246 9.04992C9.96253 9.25204 9.85547 9.47249 9.65331 9.54252C9.45118 9.61259 9.23051 9.50502 9.16047 9.3029C8.76293 8.15594 7.51843 7.74802 6.57352 7.74802C5.41687 7.74802 4.14263 8.32448 3.90336 9.61654L3.07442 14.0834H6.26445C6.47834 14.0834 6.6518 14.2569 6.6518 14.4708Z" fill="white"/>
</g>
<defs>
<clipPath id="clip0_19_27">
<rect width="17" height="17" fill="white"/>
</clipPath>
</defs>
</svg>
