<svg width="28" height="28" viewBox="0 0 28 28" fill="none" xmlns="http://www.w3.org/2000/svg">
<path fill-rule="evenodd" clip-rule="evenodd" d="M13.7186 20.8551C17.4465 20.8551 20.4686 17.833 20.4686 14.1051C20.4686 10.3772 17.4465 7.3551 13.7186 7.3551C9.99064 7.3551 6.96857 10.3772 6.96857 14.1051C6.96857 17.833 9.99064 20.8551 13.7186 20.8551ZM13.7186 18.6051C16.2038 18.6051 18.2186 16.5903 18.2186 14.1051C18.2186 11.6198 16.2038 9.6051 13.7186 9.6051C11.2333 9.6051 9.21857 11.6198 9.21857 14.1051C9.21857 16.5903 11.2333 18.6051 13.7186 18.6051Z" fill="white"/>
<path d="M20.4686 6.2301C19.8472 6.2301 19.3436 6.73379 19.3436 7.3551C19.3436 7.97642 19.8472 8.4801 20.4686 8.4801C21.0899 8.4801 21.5936 7.97642 21.5936 7.3551C21.5936 6.73379 21.0899 6.2301 20.4686 6.2301Z" fill="white"/>
<path fill-rule="evenodd" clip-rule="evenodd" d="M2.07927 5.41567C1.34357 6.85957 1.34357 8.74975 1.34357 12.5301V15.6801C1.34357 19.4604 1.34357 21.3507 2.07927 22.7945C2.72642 24.0646 3.75903 25.0972 5.02913 25.7444C6.47304 26.4801 8.36322 26.4801 12.1436 26.4801H15.2936C19.0739 26.4801 20.9641 26.4801 22.408 25.7444C23.6781 25.0972 24.7107 24.0646 25.3578 22.7945C26.0936 21.3507 26.0936 19.4604 26.0936 15.6801V12.5301C26.0936 8.74975 26.0936 6.85957 25.3578 5.41567C24.7107 4.14557 23.6781 3.11295 22.408 2.46581C20.9641 1.7301 19.0739 1.7301 15.2936 1.7301H12.1436C8.36322 1.7301 6.47304 1.7301 5.02913 2.46581C3.75903 3.11295 2.72642 4.14557 2.07927 5.41567ZM15.2936 3.9801H12.1436C10.2163 3.9801 8.9061 3.98186 7.89341 4.06459C6.90696 4.14518 6.40251 4.29127 6.05061 4.47057C5.20388 4.90201 4.51547 5.59042 4.08403 6.43715C3.90473 6.78905 3.75865 7.2935 3.67805 8.27994C3.59532 9.29263 3.59357 10.6028 3.59357 12.5301V15.6801C3.59357 17.6075 3.59532 18.9175 3.67805 19.9302C3.75865 20.9167 3.90473 21.4212 4.08403 21.7731C4.51547 22.6198 5.20388 23.3082 6.05061 23.7396C6.40251 23.9189 6.90696 24.0651 7.89341 24.1456C8.9061 24.2283 10.2163 24.2301 12.1436 24.2301H15.2936C17.2209 24.2301 18.531 24.2283 19.5437 24.1456C20.5302 24.0651 21.0347 23.9189 21.3866 23.7396C22.2332 23.3082 22.9216 22.6198 23.3531 21.7731C23.5324 21.4212 23.6785 20.9167 23.7591 19.9302C23.8418 18.9175 23.8436 17.6075 23.8436 15.6801V12.5301C23.8436 10.6028 23.8418 9.29263 23.7591 8.27994C23.6785 7.2935 23.5324 6.78905 23.3531 6.43715C22.9216 5.59042 22.2332 4.90201 21.3866 4.47057C21.0347 4.29127 20.5302 4.14518 19.5437 4.06459C18.531 3.98186 17.2209 3.9801 15.2936 3.9801Z" fill="white"/>
</svg>
