<svg width="23" height="23" viewBox="0 0 23 23" fill="none" xmlns="http://www.w3.org/2000/svg">
<path d="M6.17691 7.93848C6.9363 7.93848 7.55191 7.32287 7.55191 6.56348C7.55191 5.80408 6.9363 5.18848 6.17691 5.18848C5.41752 5.18848 4.80191 5.80408 4.80191 6.56348C4.80191 7.32287 5.41752 7.93848 6.17691 7.93848Z" fill="white"/>
<path d="M4.80191 9.77177C4.80191 9.26551 5.21232 8.8551 5.71858 8.8551H6.63524C7.1415 8.8551 7.55191 9.2655 7.55191 9.77177V17.1051C7.55191 17.6114 7.1415 18.0218 6.63524 18.0218H5.71858C5.21232 18.0218 4.80191 17.6114 4.80191 17.1051V9.77177Z" fill="white"/>
<path d="M10.3019 18.0218H11.2186C11.7248 18.0218 12.1352 17.6114 12.1352 17.1051V12.9801C12.1352 11.6051 14.8852 10.6884 14.8852 12.5218V17.1055C14.8852 17.6117 15.2956 18.0218 15.8019 18.0218H16.7186C17.2248 18.0218 17.6352 17.6114 17.6352 17.1051V11.6051C17.6352 9.77177 16.2602 8.8551 14.4269 8.8551C12.5936 8.8551 12.1352 10.2301 12.1352 10.2301V9.77177C12.1352 9.2655 11.7248 8.8551 11.2186 8.8551H10.3019C9.79562 8.8551 9.38522 9.26551 9.38522 9.77177V17.1051C9.38522 17.6114 9.79562 18.0218 10.3019 18.0218Z" fill="white"/>
<path fill-rule="evenodd" clip-rule="evenodd" d="M18.5519 1.52173C20.0707 1.52173 21.3019 2.75295 21.3019 4.27173V18.9384C21.3019 20.4572 20.0707 21.6884 18.5519 21.6884H3.88522C2.36644 21.6884 1.13522 20.4572 1.13522 18.9384V4.27173C1.13522 2.75295 2.36644 1.52173 3.88522 1.52173H18.5519ZM18.5519 3.35506C19.0582 3.35506 19.4686 3.76547 19.4686 4.27173V18.9384C19.4686 19.4447 19.0582 19.8551 18.5519 19.8551H3.88522C3.37897 19.8551 2.96856 19.4447 2.96856 18.9384V4.27173C2.96856 3.76547 3.37897 3.35506 3.88522 3.35506H18.5519Z" fill="white"/>
</svg>
