<svg width="36" height="36" viewBox="0 0 36 36" fill="none" xmlns="http://www.w3.org/2000/svg">
<g clip-path="url(#clip0_4_94)">
<path d="M28.5 36C29.3284 36 30 35.3284 30 34.5C30 33.6716 29.3284 33 28.5 33C27.6716 33 27 33.6716 27 34.5C27 35.3284 27.6716 36 28.5 36Z" fill="black"/>
<path d="M36 19.5C36 23.13 33.42 26.16 30 26.85V30C30 30.825 29.325 31.5 28.5 31.5C27.675 31.5 27 30.825 27 30V25.5C27 24.675 27.675 24 28.5 24C30.975 24 33 21.975 33 19.5C33 17.025 30.975 15 28.5 15C26.025 15 24 17.025 24 19.5C24 20.325 23.325 21 22.5 21C21.675 21 21 20.325 21 19.5C21 15.36 24.36 12 28.5 12C32.64 12 36 15.36 36 19.5ZM12 10.5H7.5C6.6705 10.5 6 9.828 6 9C6 8.172 6.6705 7.5 7.5 7.5H12C12.8295 7.5 13.5 8.172 13.5 9C13.5 9.828 12.8295 10.5 12 10.5ZM18 15C18 15.825 17.325 16.5 16.5 16.5H7.5C6.675 16.5 6 15.825 6 15C6 14.175 6.675 13.5 7.5 13.5H16.5C17.325 13.5 18 14.175 18 15ZM18 21C18 21.825 17.325 22.5 16.5 22.5H7.5C6.675 22.5 6 21.825 6 21C6 20.175 6.675 19.5 7.5 19.5H16.5C17.325 19.5 18 20.175 18 21Z" fill="black"/>
<path d="M27 3V7.44C27 8.265 26.325 8.94 25.5 8.94C24.675 8.94 24 8.265 24 7.44V3.75C24 3.33 23.67 3 23.25 3H3.75C3.33 3 3 3.33 3 3.75V32.25C3 32.67 3.315 33 3.735 33H22.5C23.325 33 24 33.675 24 34.5C24 35.325 23.325 36 22.5 36H3C1.35 36 0 34.65 0 33V3C0 1.35 1.35 0 3 0H24C25.65 0 27 1.35 27 3Z" fill="black"/>
<path d="M18 27C18 27.825 17.325 28.5 16.5 28.5H7.5C6.675 28.5 6 27.825 6 27C6 26.175 6.675 25.5 7.5 25.5H16.5C17.325 25.5 18 26.175 18 27Z" fill="black"/>
</g>
<defs>
<clipPath id="clip0_4_94">
<rect width="36" height="36" fill="white"/>
</clipPath>
</defs>
</svg>
