<svg width="27" height="27" viewBox="0 0 27 27" fill="none" xmlns="http://www.w3.org/2000/svg">
<g clip-path="url(#clip0_25_12)">
<path fill-rule="evenodd" clip-rule="evenodd" d="M8.39557 24.0048C18.2067 24.0048 23.5731 16.0014 23.5731 9.06179C23.5731 8.83397 23.5731 8.60786 23.5575 8.3826C24.6014 7.64024 25.5023 6.71853 26.2186 5.66389C25.2462 6.08882 24.2127 6.3675 23.1558 6.49036C24.2686 5.83377 25.1019 4.80223 25.501 3.58504C24.4532 4.19683 23.3079 4.62861 22.1132 4.86028C20.093 2.74587 16.7143 2.64343 14.5654 4.6324C13.1809 5.91486 12.592 7.827 13.0223 9.65086C8.73357 9.4384 4.73737 7.44434 2.02817 4.16394C0.612467 6.56376 1.33657 9.63265 3.68047 11.1737C2.83157 11.1493 2.00087 10.9243 1.25857 10.5173V10.584C1.25987 13.0836 3.04997 15.236 5.53817 15.7313C4.75297 15.9425 3.92877 15.9731 3.13057 15.8208C3.82867 17.9608 5.83197 19.4265 8.11347 19.4688C6.22457 20.9304 3.89107 21.7241 1.48867 21.7216C1.06487 21.7203 0.641067 21.6959 0.218567 21.646C2.65867 23.187 5.49657 24.0048 8.39557 24.001" fill="white"/>
</g>
<defs>
<clipPath id="clip0_25_12">
<rect width="26" height="26" fill="white" transform="translate(0.218567 0.605103)"/>
</clipPath>
</defs>
</svg>
