<svg width="34" height="34" viewBox="0 0 34 34" fill="none" xmlns="http://www.w3.org/2000/svg">
<g clip-path="url(#clip0_4_90)">
<path d="M0.265625 9.36328C0.265625 11.1799 1.54395 12.7237 3.1875 13.2913V31.1445H0.265625V33.5352H33.7344V31.1445H30.8125V13.2884C32.5245 12.7645 33.6944 11.2436 33.7344 9.36328V8.30078H0.265625V9.36328ZM8.67133 9.27642C8.67133 10.1366 9.56848 13.456 12.8851 13.456C15.7656 13.456 17.0291 10.8509 17.0291 9.27642C17.0291 10.7443 18.0132 13.453 21.2079 13.453C24.0943 13.453 25.3733 10.664 25.3733 9.27642C25.3733 11.1922 26.665 12.7848 28.4219 13.2812V31.1445H5.57812V13.2937C7.35808 12.8119 8.67133 11.2087 8.67133 9.27642ZM33.7344 7.37109H0.265625L4.51562 3.12109V0.464844H29.6172V3.12109H29.5949L33.7344 7.37109ZM22.2962 27.0866C22.3134 27.2417 22.2962 27.4254 22.2559 27.5978L20.7914 26.2481L19.4704 27.6897L20.9522 29.0336C20.78 29.091 20.6134 29.1312 20.441 29.1312C19.9298 29.1485 19.4934 28.9934 19.1201 28.6546C18.7467 28.2985 18.5458 27.8849 18.5285 27.3738C18.5285 27.1957 18.5458 26.9948 18.5859 26.8225L18.2298 26.4837L16.0991 24.5367L12.4923 28.5109C12.2741 28.8037 11.9352 29.0048 11.5447 29.0048C10.9129 29.0048 10.4019 28.4936 10.4019 27.8619C10.4019 27.5231 10.534 27.2129 10.7925 26.9947L14.5371 23.1122L12.2741 21.0388C12.096 21.1192 11.8951 21.1594 11.7228 21.1594C11.2116 21.1767 10.7752 21.0216 10.4019 20.6828C10.0285 20.344 9.82759 19.9304 9.81033 19.4192C9.79306 19.2641 9.81033 19.0804 9.85057 18.908L11.3324 20.2519L12.6419 18.8161L11.1601 17.4721C11.3152 17.4148 11.4989 17.3745 11.6713 17.3745C12.1825 17.3573 12.6189 17.5124 12.9922 17.8512C13.3656 18.1843 13.5665 18.6208 13.5838 19.1319C13.6011 19.3042 13.5838 19.4707 13.5436 19.6431L15.8753 21.7797L17.5811 19.9361L15.0311 17.6905L17.3456 15.0543L23.8987 20.8206L21.5842 23.4568L18.9652 21.148L17.3169 23.095L19.8784 25.4382C20.0507 25.3809 20.2173 25.3406 20.3896 25.3406C20.9008 25.3234 21.3373 25.4785 21.7106 25.8173C22.0837 26.1504 22.2846 26.564 22.2962 27.0866Z" fill="black"/>
</g>
<defs>
<clipPath id="clip0_4_90">
<rect width="34" height="34" fill="white"/>
</clipPath>
</defs>
</svg>
